<svg width="1060" height="136" viewBox="0 0 1060 136" fill="none" xmlns="http://www.w3.org/2000/svg">
<path d="M1039.16 103.883C1032.92 103.883 1028.02 102.146 1024.47 98.6725C1021 95.1986 1019.26 90.4221 1019.26 84.3428V52.1308H1001.62V38.7487H1019.26V20.3925H1034.18V38.7487H1059.17V52.1308H1034.18V84.3428C1034.18 88.4483 1036.2 90.501 1040.22 90.501H1057.99V103.883H1039.16Z" fill="currentColor"/>
<path d="M934.514 103.883V90.3826H957.252V52.1308H937.475V38.7486H971.463V90.3826H991.596V103.883H934.514ZM963.173 27.8534C960.173 27.8534 957.805 27.1034 956.068 25.6033C954.331 24.0243 953.462 21.9321 953.462 19.3267C953.462 16.7213 954.331 14.6686 956.068 13.1685C957.805 11.5895 960.173 10.8 963.173 10.8C966.173 10.8 968.542 11.5895 970.279 13.1685C972.016 14.6686 972.884 16.7213 972.884 19.3267C972.884 21.9321 972.016 24.0243 970.279 25.6033C968.542 27.1034 966.173 27.8534 963.173 27.8534Z" fill="currentColor"/>
<path d="M863.978 103.883V17.4319H878.781V64.3288H889.085L904.954 38.7486H921.533L901.875 70.2501L921.889 103.883H904.954L889.085 76.882H878.781V103.883H863.978Z" fill="currentColor"/>
<path d="M800.074 71.6712V57.9337H837.971V71.6712H800.074Z" fill="currentColor"/>
<path d="M732.144 125.2L741.262 100.33L716.985 38.7486H733.209L745.289 72.0265C745.92 73.8424 746.552 76.053 747.184 78.6584C747.815 81.1848 748.289 83.277 748.605 84.935C749 83.277 749.513 81.1848 750.144 78.6584C750.776 76.053 751.408 73.8424 752.039 72.0265L763.408 38.7486H779.04L747.657 125.2H732.144Z" fill="currentColor"/>
<path d="M652.607 103.883V38.7486H666.582V51.1834H670.253L665.871 58.7627C665.871 51.7361 667.45 46.4464 670.608 42.8936C673.766 39.3408 678.424 37.5644 684.582 37.5644C691.609 37.5644 697.136 39.7355 701.162 44.0778C705.189 48.4201 707.202 54.4204 707.202 62.0787V66.8157H691.688V63.1445C691.688 58.9601 690.583 55.7231 688.372 53.4335C686.24 51.144 683.28 49.9992 679.49 49.9992C675.621 49.9992 672.621 51.144 670.49 53.4335C668.437 55.7231 667.41 58.9601 667.41 63.1445V103.883H652.607Z" fill="currentColor"/>
<path d="M613.099 103.883C606.862 103.883 601.967 102.146 598.414 98.6725C594.94 95.1986 593.203 90.4221 593.203 84.3428V52.1308H575.558V38.7487H593.203V20.3925H608.125V38.7487H633.113V52.1308H608.125V84.3428C608.125 88.4483 610.138 90.501 614.165 90.501H631.929V103.883H613.099Z" fill="currentColor"/>
<path d="M535.102 105.067C529.576 105.067 524.76 104.002 520.654 101.87C516.549 99.7383 513.351 96.7776 511.062 92.988C508.851 89.1194 507.746 84.6192 507.746 79.4874V63.1445C507.746 58.0127 508.851 53.552 511.062 49.7623C513.351 45.8937 516.549 42.8936 520.654 40.7619C524.76 38.6302 529.576 37.5644 535.102 37.5644C540.55 37.5644 545.287 38.6302 549.313 40.7619C553.419 42.8936 556.577 45.8937 558.788 49.7623C561.077 53.552 562.222 58.0127 562.222 63.1445V74.8687H522.075V79.4874C522.075 84.0665 523.181 87.5404 525.391 89.9089C527.602 92.1985 530.878 93.3433 535.221 93.3433C538.537 93.3433 541.221 92.7906 543.274 91.6853C545.326 90.501 546.629 88.8036 547.182 86.593H561.748C560.643 92.1985 557.643 96.6987 552.748 100.094C547.932 103.41 542.05 105.067 535.102 105.067ZM547.892 66.5789V63.0261C547.892 58.5259 546.826 55.0915 544.695 52.723C542.563 50.2755 539.366 49.0518 535.102 49.0518C530.839 49.0518 527.602 50.2755 525.391 52.723C523.181 55.1705 522.075 58.6443 522.075 63.1445V65.6315L548.958 65.3946L547.892 66.5789Z" fill="currentColor"/>
<path d="M434.604 103.883V38.7486H446.684V47.5122H449.171L447.158 49.6439C447.158 46.0121 448.184 43.091 450.237 40.8803C452.289 38.6697 454.934 37.5644 458.171 37.5644C461.645 37.5644 464.329 38.9855 466.224 41.8277C468.198 44.67 469.185 48.4991 469.185 53.3151L466.58 47.5122H470.606L469.066 49.6439C469.066 46.0121 470.093 43.091 472.146 40.8803C474.198 38.6697 476.922 37.5644 480.317 37.5644C484.344 37.5644 487.541 39.0645 489.91 42.0646C492.278 45.0647 493.462 49.1307 493.462 54.2625V103.883H480.435V54.8546C480.435 52.723 479.962 51.065 479.014 49.8807C478.067 48.6175 476.685 47.9859 474.869 47.9859C473.132 47.9859 471.751 48.578 470.724 49.7623C469.777 50.9466 469.303 52.644 469.303 54.8546V103.883H458.645V54.8546C458.645 52.644 458.171 50.9466 457.224 49.7623C456.276 48.578 454.895 47.9859 453.079 47.9859C451.263 47.9859 449.881 48.578 448.934 49.7623C448.066 50.9466 447.631 52.644 447.631 54.8546V103.883H434.604Z" fill="currentColor"/>
<path d="M393.083 105.067C387.556 105.067 382.74 104.002 378.635 101.87C374.529 99.7383 371.332 96.7776 369.042 92.988C366.832 89.1194 365.726 84.6192 365.726 79.4874V63.1445C365.726 58.0127 366.832 53.552 369.042 49.7623C371.332 45.8937 374.529 42.8936 378.635 40.7619C382.74 38.6302 387.556 37.5644 393.083 37.5644C398.531 37.5644 403.268 38.6302 407.294 40.7619C411.4 42.8936 414.558 45.8937 416.768 49.7623C419.058 53.552 420.203 58.0127 420.203 63.1445V74.8687H380.056V79.4874C380.056 84.0665 381.161 87.5404 383.372 89.9089C385.583 92.1985 388.859 93.3433 393.201 93.3433C396.517 93.3433 399.202 92.7906 401.254 91.6853C403.307 90.501 404.61 88.8036 405.162 86.593H419.729C418.624 92.1985 415.623 96.6987 410.728 100.094C405.912 103.41 400.031 105.067 393.083 105.067ZM405.873 66.5789V63.0261C405.873 58.5259 404.807 55.0915 402.675 52.723C400.544 50.2755 397.346 49.0518 393.083 49.0518C388.82 49.0518 385.583 50.2755 383.372 52.723C381.161 55.1705 380.056 58.6443 380.056 63.1445V65.6315L406.939 65.3946L405.873 66.5789Z" fill="currentColor"/>
<path d="M331.903 103.883C327.639 103.883 323.889 103.015 320.652 101.278C317.494 99.5409 315.007 97.0934 313.191 93.9354C311.375 90.6984 310.467 86.9877 310.467 82.8033V30.8141H289.624V17.4319H325.271V82.8033C325.271 85.1718 325.942 87.0667 327.284 88.4878C328.705 89.8299 330.6 90.501 332.969 90.501H352.627V103.883H331.903Z" fill="currentColor"/>
<path d="M251.064 105.067C245.537 105.067 240.721 104.002 236.616 101.87C232.51 99.7383 229.313 96.7776 227.023 92.988C224.812 89.1194 223.707 84.6192 223.707 79.4874V63.1445C223.707 58.0127 224.812 53.552 227.023 49.7623C229.313 45.8937 232.51 42.8936 236.616 40.7619C240.721 38.6302 245.537 37.5644 251.064 37.5644C256.511 37.5644 261.248 38.6302 265.275 40.7619C269.38 42.8936 272.538 45.8937 274.749 49.7623C277.039 53.552 278.183 58.0127 278.183 63.1445V74.8687H238.037V79.4874C238.037 84.0665 239.142 87.5404 241.353 89.9089C243.563 92.1985 246.84 93.3433 251.182 93.3433C254.498 93.3433 257.182 92.7906 259.235 91.6853C261.288 90.501 262.591 88.8036 263.143 86.593H277.71C276.604 92.1985 273.604 96.6987 268.709 100.094C263.893 103.41 258.011 105.067 251.064 105.067ZM263.854 66.5789V63.0261C263.854 58.5259 262.788 55.0915 260.656 52.723C258.525 50.2755 255.327 49.0518 251.064 49.0518C246.8 49.0518 243.563 50.2755 241.353 52.723C239.142 55.1705 238.037 58.6443 238.037 63.1445V65.6315L264.92 65.3946L263.854 66.5789Z" fill="currentColor"/>
<path d="M187.041 103.883C180.804 103.883 175.909 102.146 172.356 98.6725C168.882 95.1986 167.146 90.4221 167.146 84.3428V52.1308H149.5V38.7487H167.146V20.3925H182.067V38.7487H207.055V52.1308H182.067V84.3428C182.067 88.4483 184.081 90.501 188.107 90.501H205.871V103.883H187.041Z" fill="currentColor"/>
<path d="M6.55089 43.8009H16.0702L16.5506 45.3122C18.1362 50.2876 21.1638 54.6756 25.247 57.917C29.33 61.1587 34.2837 63.1063 39.4755 63.5111H41.484V67.8912C41.4705 73.8918 43.5309 79.712 47.3133 84.36L48.798 86.1993L46.8548 87.5353V87.536C42.3417 90.6415 38.5693 94.71 35.8074 99.45L20.5241 125.906V125.905C19.5661 127.416 19.2647 129.254 19.6897 130.993C20.114 132.733 21.2284 134.222 22.7735 135.118C24.3193 136.014 26.1622 136.239 27.8765 135.74C29.5907 135.241 31.0277 134.062 31.855 132.475L47.1383 106.019V106.02C49.6471 101.67 53.4708 98.2339 58.0549 96.2084L61.1338 94.8945V129.213C61.1338 131.56 62.3825 133.729 64.4087 134.902C66.4351 136.076 68.9324 136.076 70.9587 134.902C72.985 133.729 74.2337 131.56 74.2337 129.213V94.8945L77.3126 96.274C81.8966 98.2994 85.7203 101.736 88.2292 106.086L103.512 132.542V132.541C104.732 134.466 106.861 135.619 109.135 135.586C111.409 135.553 113.504 134.338 114.667 132.378C115.831 130.418 115.898 127.993 114.843 125.971L99.56 99.5151V99.5158C96.8045 94.7778 93.0399 90.71 88.5346 87.6018L86.5915 86.2658L88.0761 84.4265H88.0754C90.3419 81.6169 92 78.3647 92.9446 74.8779L93.5558 72.6879L95.7391 73.4322C97.9616 74.1443 100.284 74.4922 102.617 74.4616H115.717C119.77 74.4616 123.658 72.8461 126.524 69.9716C129.389 67.0965 131 63.1969 131 59.1313V15.3303C131 11.2647 129.39 7.36494 126.524 4.48996C123.657 1.61552 119.77 0 115.717 0H102.617C95.2381 0.0106936 88.3641 3.75922 84.3424 9.96508L83.6871 10.9503H41.4835C35.9469 10.9546 30.5534 12.7176 26.0779 15.987C21.6018 19.2572 18.2742 23.8646 16.5714 29.1494L16.0909 30.6608H6.55019C4.20985 30.6608 2.04781 31.9133 0.877914 33.9458C-0.292638 35.9784 -0.292638 38.4834 0.877914 40.516C2.04776 42.5485 4.20967 43.801 6.55019 43.801L6.55089 43.8009ZM93.8838 21.9004C93.8838 19.5771 94.8042 17.3491 96.4418 15.706C98.08 14.0635 100.301 13.1402 102.617 13.1402H115.717C116.296 13.1402 116.851 13.3712 117.261 13.7818C117.67 14.1924 117.9 14.7492 117.9 15.3303V59.1312C117.9 59.7122 117.67 60.269 117.261 60.6796C116.851 61.0902 116.296 61.3212 115.717 61.3212H102.617C100.301 61.3212 98.0798 60.398 96.4418 58.7554C94.8043 57.1122 93.8838 54.8843 93.8838 52.561V21.9004ZM80.7839 67.8914C80.7839 72.5859 78.2871 76.9238 74.2339 79.2714C70.1807 81.6182 65.1871 81.6182 61.134 79.2714C57.0808 76.9238 54.584 72.5857 54.584 67.8914V63.5113H80.7839V67.8914ZM41.4841 24.0904H80.7839V50.371H41.4841C36.8039 50.371 32.4793 47.8665 30.139 43.8009C27.7993 39.7352 27.7993 34.7262 30.139 30.6606C32.4793 26.5949 36.8041 24.0904 41.4841 24.0904Z" fill="currentColor"/>
</svg>
